<?xml version="1.0" encoding="utf-8"?>
<!-- Generator: Adobe Illustrator 24.3.0, SVG Export Plug-In . SVG Version: 6.00 Build 0)  -->
<svg version="1.1" id="Layer_1" xmlns="http://www.w3.org/2000/svg" xmlns:xlink="http://www.w3.org/1999/xlink" x="0px" y="0px"
	 viewBox="0 0 837.7 368.6" style="enable-background:new 0 0 837.7 368.6;" xml:space="preserve">
<style type="text/css">
	.st0{fill-rule:evenodd;clip-rule:evenodd;fill:#3E4653;}
	.st1{fill:none;stroke:#8B9098;}
</style>
<g>
	<path class="st0" d="M541.7,236.9h22.4V163h-22.4V236.9z M598.9,236.9h25.8l25.8-73.9h-22.2c0,0-12.1,40.2-15.7,52.9h-0.3
		c-3.6-12.7-15.8-52.9-15.8-52.9h-23.6L598.9,236.9z M728.6,163h-21.6v10.1c-3.7-7.8-12.4-12.1-22.5-12.1c-18.3,0-32.8,14.9-32.8,39
		c0,24.2,14,39,31.7,39c12.4,0,19.9-6.1,23.6-12.7v10.7h21.6V163z M706.4,201.8c0,13.7-8.4,20-16.8,20c-9.2,0-15.1-9.3-15.1-21.9
		c0-12.4,6.2-21.9,15.8-21.9c7.9,0,16,6.5,16,20V201.8z M482.2,131.4h-22.4v105.4h22.4V131.4z M488.4,197.7
		c35.5,0,43.8-29.7,43.8-34.7h-3.1c-35.5,0-43.8,29.7-43.8,34.7H488.4z M485.4,201.3c0,5.4,6.1,35.7,44.4,35.7h3.1
		c0-5.4-6.1-35.7-44.4-35.7H485.4z M566.3,142.6c0-7-5.1-13-13.4-13s-13.4,6.1-13.4,13s5.1,13,13.4,13S566.3,149.6,566.3,142.6z"/>
	<line class="st1" x1="385.8" y1="238.6" x2="802.8" y2="238.6"/>
	<line class="st1" x1="385.8" y1="128.9" x2="802.8" y2="128.9"/>
	<line class="st1" x1="459.7" y1="313.5" x2="459.7" y2="55.1"/>
	<line class="st1" x1="727.9" y1="313.5" x2="727.9" y2="55.1"/>
	<path class="st0" d="M131.2,131.4h-22.4v105.4h22.4V131.4z M137.4,197.7c35.5,0,43.8-29.7,43.8-34.7h-3.1
		c-35.5,0-43.8,29.7-43.8,34.7H137.4z M134.4,201.3c0,5.4,6.1,35.7,44.4,35.7h3.1c0-5.4-6.1-35.7-44.4-35.7H134.4z"/>
	<line class="st1" x1="34.8" y1="238.7" x2="259.1" y2="238.7"/>
	<line class="st1" x1="34.8" y1="128.7" x2="259.1" y2="128.7"/>
	<line class="st1" x1="108.7" y1="313.5" x2="108.7" y2="55.1"/>
	<line class="st1" x1="183.3" y1="313.5" x2="183.3" y2="55.1"/>
</g>
</svg>
