<?xml version="1.0" encoding="utf-8"?>
<!-- Generator: Adobe Illustrator 24.3.0, SVG Export Plug-In . SVG Version: 6.00 Build 0)  -->
<svg version="1.1" id="Layer_1" xmlns="http://www.w3.org/2000/svg" xmlns:xlink="http://www.w3.org/1999/xlink" x="0px" y="0px"
	 viewBox="0 0 36 36" style="enable-background:new 0 0 36 36;" xml:space="preserve">
<style type="text/css">
	.st0{fill:#3E4653;}
	.st1{fill:#47BA7E;}
	.st2{fill:#8062AA;}
	.st3{fill:#F04F23;}
	.st4{fill:#F37264;}
	.st5{fill:#46B8E9;}
</style>
<g>
	<path class="st0" d="M2,18C2,9.2,9.2,2,18,2c8.8,0,16,7.2,16,16c0,8.8-7.2,16-16,16C9.2,34,2,26.8,2,18z"/>
	<path class="st1" d="M14.8,27.6c1.8,0,3.2-1.4,3.2-3.2v-3.2h-3.2c-1.8,0-3.2,1.4-3.2,3.2S13,27.6,14.8,27.6z"/>
	<path class="st2" d="M11.6,18c0-1.8,1.4-3.2,3.2-3.2H18v6.4h-3.2C13,21.2,11.6,19.8,11.6,18z"/>
	<path class="st3" d="M11.6,11.6c0-1.8,1.4-3.2,3.2-3.2H18v6.4h-3.2C13,14.8,11.6,13.4,11.6,11.6z"/>
	<path class="st4" d="M18,8.4h3.2c1.8,0,3.2,1.4,3.2,3.2c0,1.8-1.4,3.2-3.2,3.2H18V8.4z"/>
	<path class="st5" d="M24.4,18c0,1.8-1.4,3.2-3.2,3.2c-1.8,0-3.2-1.4-3.2-3.2s1.4-3.2,3.2-3.2C23,14.8,24.4,16.2,24.4,18z"/>
</g>
</svg>
