<?xml version="1.0" encoding="utf-8"?>
<!-- Generator: Adobe Illustrator 24.3.0, SVG Export Plug-In . SVG Version: 6.00 Build 0)  -->
<svg version="1.1" id="Layer_1" xmlns="http://www.w3.org/2000/svg" xmlns:xlink="http://www.w3.org/1999/xlink" x="0px" y="0px"
	 viewBox="0 0 36 36" style="enable-background:new 0 0 36 36;" xml:space="preserve">
<style type="text/css">
	.st0{fill:#3E4653;}
	.st1{fill:#A6DACC;}
	.st2{fill:#ED7569;}
</style>
<g>
	<path class="st0" d="M28.9,9.5v16.9c0,2.7-2.2,4.9-4.9,4.9H6.9c-2.7,0-4.9-2.2-4.9-4.9V9.5c0-2.7,2.2-4.9,4.9-4.9H24
		C26.7,4.7,28.9,6.8,28.9,9.5z"/>
	<path class="st1" d="M16.4,19.7l-4.6,3.1c-1.4,0.9-0.7,3.1,1,3.1h19.6c0.9,0,1.7-0.8,1.7-1.7v-7.1c0-1.4-1.6-2.2-2.7-1.4L24,21.2
		c-0.5,0.4-1.2,0.4-1.7,0.2L18,19.6C17.5,19.3,16.9,19.4,16.4,19.7z"/>
	<ellipse class="st2" cx="10.9" cy="13.2" rx="3.4" ry="3.3"/>
</g>
</svg>
