<?xml version="1.0" encoding="utf-8"?>
<!-- Generator: Adobe Illustrator 24.2.1, SVG Export Plug-In . SVG Version: 6.00 Build 0)  -->
<svg version="1.1" id="Layer_1" xmlns="http://www.w3.org/2000/svg" xmlns:xlink="http://www.w3.org/1999/xlink" x="0px" y="0px"
	 viewBox="0 0 145 145" style="enable-background:new 0 0 145 145;" xml:space="preserve">
<style type="text/css">
	.st0{fill:none;stroke:#CD4A3D;stroke-width:8;}
	.st1{fill:#9EEBD5;}
	.st2{fill:#FFFFFF;}
</style>
<path class="st0" d="M107,42.5v60c0,8.84-7.16,16-16,16H31c-8.84,0-16-7.16-16-16v-60c0-8.84,7.16-16,16-16h60
	C99.84,26.5,107,33.66,107,42.5z"/>
<path class="st1" d="M64.16,79.12L48.82,89.54c-5.7,3.88-2.96,12.79,3.93,12.79H123c3.87,0,7-3.13,7-7V70.55
	c0-5.78-6.6-9.07-11.21-5.59L92.97,84.42c-2.04,1.54-4.75,1.84-7.08,0.8l-14.92-6.7C68.75,77.52,66.17,77.75,64.16,79.12z"/>
<circle class="st2" cx="44" cy="54.67" r="12.5"/>
</svg>
