<?xml version="1.0" encoding="utf-8"?>
<!-- Generator: Adobe Illustrator 24.2.1, SVG Export Plug-In . SVG Version: 6.00 Build 0)  -->
<svg version="1.1" id="Layer_1" xmlns="http://www.w3.org/2000/svg" xmlns:xlink="http://www.w3.org/1999/xlink" x="0px" y="0px"
	 viewBox="0 0 145 145" style="enable-background:new 0 0 145 145;" xml:space="preserve">
<style type="text/css">
	.st0{fill:#CD4A3D;}
	.st1{fill-rule:evenodd;clip-rule:evenodd;fill:#9EEBD5;}
</style>
<path class="st0" d="M98.19,18.62c9.05,0,16.41,7.28,16.41,16.23s-7.35,16.23-16.41,16.23H81.78c-5.35,0-10.12,2.55-13.12,6.5
	c-1.99-1.49-3.29-3.85-3.29-6.5V30.79c0-6.71,5.53-12.17,12.31-12.17H98.19z M98.19,10.5H77.68c-11.33,0-20.51,9.08-20.51,20.29
	v20.29c0,8.96,7.35,16.23,16.41,16.23c0-4.49,3.68-8.12,8.2-8.12h16.41c13.6,0,24.61-10.91,24.61-24.35S111.78,10.5,98.19,10.5z"/>
<path class="st1" d="M42.14,63.82H27.17v70.63h14.98V63.82z"/>
<path class="st1" d="M46.35,108.21c23.78,0,29.34-19.87,29.34-23.27h-2.06c-23.78,0-29.34,19.87-29.34,23.27H46.35z"/>
<path class="st1" d="M44.29,110.61c0,3.6,4.12,23.89,29.76,23.89h2.06c0-3.6-4.12-23.89-29.76-23.89H44.29L44.29,110.61z"/>
</svg>
