<?xml version="1.0" encoding="utf-8"?>
<!-- Generator: Adobe Illustrator 24.3.0, SVG Export Plug-In . SVG Version: 6.00 Build 0)  -->
<svg version="1.1" id="Layer_1" xmlns="http://www.w3.org/2000/svg" xmlns:xlink="http://www.w3.org/1999/xlink" x="0px" y="0px"
	 viewBox="0 0 1920 903.4" style="enable-background:new 0 0 1920 903.4;" xml:space="preserve">
<style type="text/css">
	.st0{fill:#3F4652;}
	.st1{fill:#AFE9D6;}
	.st2{fill:#BF5344;}
	.st3{fill:#BCCEF4;}
</style>
<path class="st0" d="M1858,0c0,0,81.9,368.7-382,555C975,756.3,984.2,903.4,984.2,903.4h96.7c0,0,88.3-112.9,204.1-157
	s-19.3,115.4-16.5,157H1920V0H1858z"/>
<path class="st1" d="M1112.3,0c0,0-109.8,141-594.7,86.1S0,166.2,0,166.2L0,0H1112.3z"/>
<path class="st2" d="M1920,362.9c0,0-20.9,247-208.4,301.9s-329.4,238.5-329.4,238.5H1920V362.9z"/>
<path class="st3" d="M1673.2,362.9c0,0,70.9,17.4,66.3,88.8s-57.2,119-132.7,88.3c-75.5-30.7-68.6-83.3-41.2-106.2
	C1593.1,410.9,1618.3,353.8,1673.2,362.9z"/>
</svg>
