<?xml version="1.0" encoding="utf-8"?>
<!-- Generator: Adobe Illustrator 24.2.1, SVG Export Plug-In . SVG Version: 6.00 Build 0)  -->
<svg version="1.1" id="Layer_1" xmlns="http://www.w3.org/2000/svg" xmlns:xlink="http://www.w3.org/1999/xlink" x="0px" y="0px"
	 viewBox="0 0 145 145" style="enable-background:new 0 0 145 145;" xml:space="preserve">
<style type="text/css">
	.st0{fill:none;stroke:#CD4A3D;stroke-width:8;}
	.st1{fill:#9EEBD5;}
	.st2{fill:#3E4653;}
</style>
<path class="st0" d="M34,13.5h50c8.84,0,16,7.16,16,16v60c0,8.84-7.16,16-16,16H34c-8.84,0-16-7.16-16-16v-60
	C18,20.66,25.16,13.5,34,13.5z"/>
<path class="st1" d="M52,31.5h60c8.28,0,15,6.72,15,15v70c0,8.28-6.72,15-15,15H52c-8.28,0-15-6.72-15-15v-70
	C37,38.22,43.72,31.5,52,31.5z"/>
<path class="st2" d="M59,57.5h35c2.76,0,5,2.24,5,5v2c0,2.76-2.24,5-5,5H59c-2.76,0-5-2.24-5-5v-2C54,59.74,56.24,57.5,59,57.5z"/>
<path class="st2" d="M56.5,79.5h51c1.38,0,2.5,1.12,2.5,2.5l0,0c0,1.38-1.12,2.5-2.5,2.5h-51c-1.38,0-2.5-1.12-2.5-2.5l0,0
	C54,80.62,55.12,79.5,56.5,79.5z"/>
<path class="st2" d="M56.5,89.5h40c1.38,0,2.5,1.12,2.5,2.5l0,0c0,1.38-1.12,2.5-2.5,2.5h-40c-1.38,0-2.5-1.12-2.5-2.5l0,0
	C54,90.62,55.12,89.5,56.5,89.5z"/>
<path class="st2" d="M56.5,99.5h51c1.38,0,2.5,1.12,2.5,2.5l0,0c0,1.38-1.12,2.5-2.5,2.5h-51c-1.38,0-2.5-1.12-2.5-2.5l0,0
	C54,100.62,55.12,99.5,56.5,99.5z"/>
</svg>
