<?xml version="1.0" encoding="utf-8"?>
<!-- Generator: Adobe Illustrator 24.3.0, SVG Export Plug-In . SVG Version: 6.00 Build 0)  -->
<svg version="1.1" id="Layer_1" xmlns="http://www.w3.org/2000/svg" xmlns:xlink="http://www.w3.org/1999/xlink" x="0px" y="0px"
	 viewBox="0 0 36 36" style="enable-background:new 0 0 36 36;" xml:space="preserve">
<style type="text/css">
	.st0{fill:#3E4653;}
	.st1{clip-path:url(#SVGID_2_);}
	.st2{fill:#ED7569;}
	.st3{fill:#A6DACC;}
</style>
<g>
	<path class="st0" d="M7,2h22c2.8,0,5,2.2,5,5v22c0,2.8-2.2,5-5,5H7c-2.8,0-5-2.2-5-5V7C2,4.2,4.2,2,7,2z"/>
	<g>
		<defs>
			<rect id="SVGID_1_" x="6" y="6" width="24" height="24"/>
		</defs>
		<clipPath id="SVGID_2_">
			<use xlink:href="#SVGID_1_"  style="overflow:visible;"/>
		</clipPath>
		<g class="st1">
			<path class="st2" d="M14.5,13.1L13.6,15c-0.4,0.8-0.3,1.7,0.2,2.4l3.5,4.7v-4.2c-0.6-0.3-1.1-0.9-1.1-1.6c0-1,0.8-1.8,1.8-1.8
				s1.8,0.8,1.8,1.8c0,0.7-0.4,1.3-1.1,1.6v4.2l3.5-4.7c0.5-0.7,0.6-1.6,0.2-2.4l-0.9-1.9L14.5,13.1L14.5,13.1z"/>
			<path class="st2" d="M21.1,11.7V9.2c0-1.5-1.2-2.7-2.7-2.7h-0.7c-1.5,0-2.7,1.2-2.7,2.7v2.5H21.1z"/>
			<path class="st3" d="M7.8,26L7.8,26c-1,0-1.8,0.8-1.8,1.7v0c0,1,0.8,1.7,1.7,1.7h0c0.7,0,1.3-0.4,1.6-1.1h6.9v0.4
				c0,0.4,0.3,0.7,0.7,0.7h2.1c0.4,0,0.7-0.3,0.7-0.7v-0.4l6.9,0c0.3,0.6,0.9,1.1,1.6,1.1h0c1,0,1.7-0.8,1.7-1.7v0
				c0-1-0.8-1.7-1.7-1.7h0c-0.7,0-1.3,0.4-1.6,1.1h-3.3c0.9-0.5,1.7-1.1,2.4-1.8c1.6-1.6,2.7-3.7,3.1-6h0.5c0.4,0,0.7-0.3,0.7-0.7
				v-2.1c0-0.4-0.3-0.7-0.7-0.7h-2.1c-0.4,0-0.7,0.3-0.7,0.7v2.1c0,0.4,0.3,0.7,0.7,0.7h0.2c-0.7,3.9-3.8,6.9-7.6,7.6v-0.2
				c0-0.4-0.3-0.7-0.7-0.7h-2.1c-0.4,0-0.7,0.3-0.7,0.7v0.2c-3.9-0.7-6.9-3.8-7.6-7.6h0.2c0.4,0,0.7-0.3,0.7-0.7v-2.1
				c0-0.4-0.3-0.7-0.7-0.7H6.7c-0.4,0-0.7,0.3-0.7,0.7v2.1c0,0.4,0.3,0.7,0.7,0.7h0.5c0.4,2.3,1.4,4.3,3.1,6
				c0.7,0.7,1.5,1.3,2.4,1.8H9.4C9.1,26.5,8.5,26,7.8,26z"/>
		</g>
	</g>
</g>
</svg>
