<?xml version="1.0" encoding="utf-8"?>
<!-- Generator: Adobe Illustrator 24.3.0, SVG Export Plug-In . SVG Version: 6.00 Build 0)  -->
<svg version="1.1" id="Layer_1" xmlns="http://www.w3.org/2000/svg" xmlns:xlink="http://www.w3.org/1999/xlink" x="0px" y="0px"
	 viewBox="0 0 36 36" style="enable-background:new 0 0 36 36;" xml:space="preserve">
<style type="text/css">
	.st0{fill:#3E4653;}
	.st1{fill-rule:evenodd;clip-rule:evenodd;fill:#A6DACC;}
</style>
<g>
	<path class="st0" d="M7,1.7h22c2.8,0,5,2.2,5,5v22c0,2.8-2.2,5-5,5H7c-2.8,0-5-2.2-5-5v-22C2,3.9,4.2,1.7,7,1.7z"/>
	<path class="st1" d="M14.9,5.7H9.8v24h5.1V5.7z"/>
	<path class="st1" d="M16.3,20.8c8.1,0,10-6.7,10-7.9h-0.7c-8.1,0-10,6.7-10,7.9H16.3z"/>
	<path class="st1" d="M15.6,21.6c0,1.2,1.4,8.1,10.1,8.1h0.7c0-1.2-1.4-8.1-10.1-8.1H15.6L15.6,21.6z"/>
</g>
</svg>
