<?xml version="1.0" encoding="utf-8"?>
<!-- Generator: Adobe Illustrator 24.3.0, SVG Export Plug-In . SVG Version: 6.00 Build 0)  -->
<svg version="1.1" id="Layer_1" xmlns="http://www.w3.org/2000/svg" xmlns:xlink="http://www.w3.org/1999/xlink" x="0px" y="0px"
	 viewBox="0 0 600 600" style="enable-background:new 0 0 600 600;" xml:space="preserve">
<style type="text/css">
	.st0{fill:#3E4653;}
	.st1{fill-rule:evenodd;clip-rule:evenodd;fill:#A6DACC;}
</style>
<path class="st0" d="M42.1,18.4h515.7c12.9,0,23.4,10.5,23.4,23.4v515.7c0,12.9-10.5,23.4-23.4,23.4H42.1
	c-12.9,0-23.4-10.5-23.4-23.4V41.8C18.7,28.9,29.2,18.4,42.1,18.4z"/>
<path class="st1" d="M231.3,369.7h29.2V273h-29.2V369.7z M306,369.7h33.7l33.7-96.7h-29c0,0-15.8,52.6-20.5,69.2h-0.4
	c-4.7-16.7-20.7-69.2-20.7-69.2h-30.9L306,369.7z M475.8,273h-28.2v13.2c-4.9-10.2-16.2-15.8-29.4-15.8c-24,0-42.8,19.5-42.8,51
	c0,31.7,18.3,51,41.4,51c16.2,0,26-7.9,30.9-16.7v14h28.2V273z M446.7,323.8c0,17.9-11,26.2-21.9,26.2c-12,0-19.7-12.2-19.7-28.6
	c0-16.2,8.1-28.6,20.7-28.6c10.4,0,20.9,8.5,20.9,26.2V323.8z M153.4,231.8h-29.2v137.9h29.2V231.8z M161.6,318.4
	c46.4,0,57.3-38.8,57.3-45.4h-4c-46.4,0-57.3,38.8-57.3,45.4H161.6z M157.6,323.1c0,7,8,46.6,58.1,46.6h4c0-7-8-46.6-58.1-46.6
	H157.6z M263.4,246.4c0-9.1-6.7-17.1-17.5-17.1c-10.8,0-17.5,7.9-17.5,17.1c0,9.1,6.7,17.1,17.5,17.1
	C256.7,263.5,263.4,255.6,263.4,246.4z"/>
<path class="st0" d="M42.1,18.4h515.7c12.9,0,23.4,10.5,23.4,23.4v515.7c0,12.9-10.5,23.4-23.4,23.4H42.1
	c-12.9,0-23.4-10.5-23.4-23.4V41.8C18.7,28.9,29.2,18.4,42.1,18.4z"/>
<path class="st1" d="M231.3,369.7h29.2V273h-29.2V369.7z M306,369.7h33.7l33.7-96.7h-29c0,0-15.8,52.6-20.5,69.2h-0.4
	c-4.7-16.7-20.7-69.2-20.7-69.2h-30.9L306,369.7z M475.8,273h-28.2v13.2c-4.9-10.2-16.2-15.8-29.4-15.8c-24,0-42.8,19.5-42.8,51
	c0,31.7,18.3,51,41.4,51c16.2,0,26-7.9,30.9-16.7v14h28.2V273z M446.7,323.8c0,17.9-11,26.2-21.9,26.2c-12,0-19.7-12.2-19.7-28.6
	c0-16.2,8.1-28.6,20.7-28.6c10.4,0,20.9,8.5,20.9,26.2V323.8z M153.4,231.8h-29.2v137.9h29.2V231.8z M161.6,318.4
	c46.4,0,57.3-38.8,57.3-45.4h-4c-46.4,0-57.3,38.8-57.3,45.4H161.6z M157.6,323.1c0,7,8,46.6,58.1,46.6h4c0-7-8-46.6-58.1-46.6
	H157.6z M263.4,246.4c0-9.1-6.7-17.1-17.5-17.1c-10.8,0-17.5,7.9-17.5,17.1c0,9.1,6.7,17.1,17.5,17.1
	C256.7,263.5,263.4,255.6,263.4,246.4z"/>
<path class="st0" d="M42.1,18.4h515.7c12.9,0,23.4,10.5,23.4,23.4v515.7c0,12.9-10.5,23.4-23.4,23.4H42.1
	c-12.9,0-23.4-10.5-23.4-23.4V41.8C18.7,28.9,29.2,18.4,42.1,18.4z"/>
<path class="st1" d="M231.3,369.7h29.2V273h-29.2V369.7z M306,369.7h33.7l33.7-96.7h-29c0,0-15.8,52.6-20.5,69.2h-0.4
	c-4.7-16.7-20.7-69.2-20.7-69.2h-30.9L306,369.7z M475.8,273h-28.2v13.2c-4.9-10.2-16.2-15.8-29.4-15.8c-24,0-42.8,19.5-42.8,51
	c0,31.7,18.3,51,41.4,51c16.2,0,26-7.9,30.9-16.7v14h28.2V273z M446.7,323.8c0,17.9-11,26.2-21.9,26.2c-12,0-19.7-12.2-19.7-28.6
	c0-16.2,8.1-28.6,20.7-28.6c10.4,0,20.9,8.5,20.9,26.2V323.8z M153.4,231.8h-29.2v137.9h29.2V231.8z M161.6,318.4
	c46.4,0,57.3-38.8,57.3-45.4h-4c-46.4,0-57.3,38.8-57.3,45.4H161.6z M157.6,323.1c0,7,8,46.6,58.1,46.6h4c0-7-8-46.6-58.1-46.6
	H157.6z M263.4,246.4c0-9.1-6.7-17.1-17.5-17.1c-10.8,0-17.5,7.9-17.5,17.1c0,9.1,6.7,17.1,17.5,17.1
	C256.7,263.5,263.4,255.6,263.4,246.4z"/>
</svg>
