<?xml version="1.0" encoding="utf-8"?>
<!-- Generator: Adobe Illustrator 24.3.0, SVG Export Plug-In . SVG Version: 6.00 Build 0)  -->
<svg version="1.1" id="Layer_1" xmlns="http://www.w3.org/2000/svg" xmlns:xlink="http://www.w3.org/1999/xlink" x="0px" y="0px"
	 viewBox="0 0 1200 1200" style="enable-background:new 0 0 1200 1200;" xml:space="preserve">
<style type="text/css">
	.st0{fill:#3E4653;}
	.st1{fill-rule:evenodd;clip-rule:evenodd;fill:#FFFFFF;}
</style>
<rect x="-0.1" y="-0.4" class="st0" width="1200.1" height="1200.1"/>
<path class="st1" d="M482.8,717.5h49.9V552.5h-49.9V717.5z M610.3,717.5h57.5l57.5-164.9h-49.5c0,0-27,89.7-35,118.2h-0.7
	c-8-28.4-35.3-118.2-35.3-118.2h-52.7L610.3,717.5z M900,552.5h-48.2V575c-8.3-17.3-27.7-27-50.2-27c-40.9,0-73.1,33.3-73.1,87
	c0,54,31.2,87,70.7,87c27.7,0,44.4-13.5,52.7-28.4v23.9H900V552.5z M850.5,639.2c0,30.5-18.7,44.7-37.4,44.7
	c-20.4,0-33.6-20.8-33.6-48.9c0-27.7,13.9-48.9,35.3-48.9c17.7,0,35.7,14.6,35.7,44.7V639.2z M349.9,482.2H300v235.3h49.9V482.2z
	 M363.9,630c79.2,0,97.7-66.2,97.7-77.5h-6.9c-79.2,0-97.7,66.2-97.7,77.5H363.9z M357,638.1c0,12,13.7,79.6,99.1,79.6h6.9
	c0-12-13.7-79.6-99.1-79.6H357z M537.6,507.1c0-15.6-11.4-29.1-29.8-29.1c-18.4,0-29.8,13.5-29.8,29.1c0,15.6,11.4,29.1,29.8,29.1
	C526.1,536.2,537.6,522.7,537.6,507.1z"/>
</svg>
