<?xml version="1.0" encoding="utf-8"?>
<!-- Generator: Adobe Illustrator 24.3.0, SVG Export Plug-In . SVG Version: 6.00 Build 0)  -->
<svg version="1.1" id="Layer_1" xmlns="http://www.w3.org/2000/svg" xmlns:xlink="http://www.w3.org/1999/xlink" x="0px" y="0px"
	 viewBox="0 0 36 36" style="enable-background:new 0 0 36 36;" xml:space="preserve">
<style type="text/css">
	.st0{fill:#ED7569;}
	.st1{fill:#3E4653;}
	.st2{fill:#BACDEA;}
	.st3{fill:#FFFFFF;}
	.st4{fill:#A6DACC;}
</style>
<g>
	<path class="st0" d="M33.9,19.6c-0.4,0.4-0.9,0.7-1.4,1c-2,1.1-3.9,2.2-5.5,3.9c-1.6,1.6-2.7,3.7-4.1,5.4c-1.4,1.8-3.3,3.3-5.6,3.4
		c-2.5,0.1-4.8-1.9-5.9-4.2c-1.1-2.3-1.4-5-1.6-7.6c-0.1-1.1-0.2-2.3-0.3-3.4c-0.1-0.8,0.1-1.8,0.3-2.5c0.2-0.8,0.6-1.2,1.2-1.7
		c1.7-1.5,4-2.2,6.2-2.6c4.5-0.8,9.2-0.5,13.6,0.9c0.8,0.3,1.7,0.6,2.4,1.1C34.8,14.4,35.3,18.1,33.9,19.6z"/>
	<path class="st1" d="M32.3,14.1c-0.5,0.6-1.1,0.9-1.8,1.3c-2.5,1.4-5,2.8-7,4.9c-2,2.1-3.4,4.7-5.2,6.9c-1.8,2.2-4.3,4.2-7.1,4.3
		c-3.2,0.1-6.1-2.4-7.5-5.4c-1.4-3-1.8-6.4-2.1-9.7c-0.1-1.5-0.3-2.9-0.4-4.4c-0.1-1,0.1-2.3,0.4-3.2c0.3-1,0.7-1.5,1.5-2.2
		c2.2-1.9,5.1-2.8,7.9-3.3c5.7-1,11.7-0.6,17.3,1.1c1.1,0.3,2.2,0.7,3,1.4C33.4,7.4,34,12.1,32.3,14.1z"/>
	<path class="st0" d="M17.4,7.3c-1.8-2.5-4.2-1-5.2,0c-1.6,3.6,1.7,4.3,3.6,4.3C17,11.2,19.2,9.8,17.4,7.3z"/>
	<path class="st2" d="M26.2,7.3c-1.6-2.5-3.8-1-4.7,0c-1.5,3.6,1.6,4.3,3.3,4.3C25.9,11.2,27.8,9.8,26.2,7.3z"/>
	<path class="st3" d="M9.9,19.3c-1.6-2.5-3.8-1-4.7,0c-1.5,3.6,1.6,4.3,3.3,4.3C9.6,23.2,11.5,21.8,9.9,19.3z"/>
	<path class="st4" d="M9.2,10.9c-1.6-2.5-3.8-1-4.7,0c-1.5,3.6,1.6,4.3,3.3,4.3C8.9,14.7,10.8,13.3,9.2,10.9z"/>
</g>
</svg>
