<?xml version="1.0" encoding="utf-8"?>
<!-- Generator: Adobe Illustrator 24.2.1, SVG Export Plug-In . SVG Version: 6.00 Build 0)  -->
<svg version="1.1" id="Layer_1" xmlns="http://www.w3.org/2000/svg" xmlns:xlink="http://www.w3.org/1999/xlink" x="0px" y="0px"
	 viewBox="0 0 145 145" style="enable-background:new 0 0 145 145;" xml:space="preserve">
<style type="text/css">
	.st0{fill:none;stroke:#CD4A3D;stroke-width:7;stroke-miterlimit:10;}
	.st1{fill:#9EEBD5;}
	.st2{fill:#CD4A3D;}
	.st3{fill:#3E4653;}
	.st4{fill:#FFFFFF;}
</style>
<g>
	<path class="st0" d="M125.12,79.76c-1.21,1.36-2.86,2.24-4.47,3.1c-6.2,3.31-12.41,6.82-17.37,11.81
		c-4.94,4.98-8.43,11.2-12.94,16.58c-4.51,5.37-10.62,10.09-17.63,10.26c-8.02,0.19-15.16-5.8-18.77-12.98
		c-3.61-7.18-4.4-15.41-5.13-23.41c-0.32-3.5-0.64-7.01-0.96-10.51c-0.21-2.32,0.27-5.56,0.96-7.78c0.75-2.42,1.83-3.57,3.77-5.19
		c5.53-4.62,12.72-6.74,19.82-7.94c14.31-2.42,29.18-1.52,43.1,2.61c2.68,0.8,5.39,1.74,7.59,3.47
		C128,63.61,129.38,74.95,125.12,79.76z"/>
	<path class="st1" d="M117.75,59.08c-1.57,1.77-3.72,2.91-5.8,4.02c-8.05,4.29-16.12,8.86-22.56,15.34
		C82.96,84.91,78.44,93,72.58,99.97c-5.86,6.98-13.79,13.11-22.89,13.33c-10.42,0.25-19.69-7.53-24.38-16.86
		c-4.69-9.33-5.72-20.01-6.66-30.41c-0.41-4.55-0.83-9.1-1.24-13.65c-0.27-3.01,0.34-7.22,1.24-10.11c0.98-3.15,2.37-4.64,4.9-6.75
		c7.18-6,16.52-8.75,25.74-10.31c18.59-3.14,37.89-1.98,55.97,3.38c3.48,1.03,7,2.26,9.86,4.5
		C121.5,38.11,123.29,52.84,117.75,59.08z"/>
	<path class="st2" d="M74.68,36.77c-5.74-7.75-13.7-3.23-16.97,0c-5.22,11.14,5.66,13.52,11.75,13.32
		C73.59,48.88,80.43,44.52,74.68,36.77z"/>
	<path class="st3" d="M43.89,71.77c-5.18-7.75-12.36-3.23-15.31,0c-4.71,11.14,5.1,13.52,10.6,13.32
		C42.91,83.88,49.07,79.52,43.89,71.77z"/>
	<path class="st4" d="M45.89,43.77c-5.18-7.75-12.36-3.23-15.31,0c-4.71,11.14,5.1,13.52,10.6,13.32
		C44.91,55.88,51.07,51.52,45.89,43.77z"/>
</g>
</svg>
