<?xml version="1.0" encoding="utf-8"?>
<!-- Generator: Adobe Illustrator 24.3.0, SVG Export Plug-In . SVG Version: 6.00 Build 0)  -->
<svg version="1.1" id="Layer_1" xmlns="http://www.w3.org/2000/svg" xmlns:xlink="http://www.w3.org/1999/xlink" x="0px" y="0px"
	 viewBox="0 0 36 36" style="enable-background:new 0 0 36 36;" xml:space="preserve">
<style type="text/css">
	.st0{fill:#3E4653;}
	.st1{fill:#ED7569;}
	.st2{fill:#A6DACC;}
</style>
<g>
	<path class="st0" d="M7,2h22c2.8,0,5,2.2,5,5v22c0,2.8-2.2,5-5,5H7c-2.8,0-5-2.2-5-5V7C2,4.2,4.2,2,7,2z"/>
	<path class="st1" d="M18,30c-1.6,0-3-1.3-3-3c0-1.6,1.3-3,3-3s3,1.3,3,3C21,28.7,19.6,30,18,30z"/>
	<path class="st2" d="M18,21c-1.6,0-3-1.3-3-3c0-1.6,1.3-3,3-3s3,1.3,3,3C21,19.6,19.6,21,18,21z"/>
	<path class="st2" d="M18,11.9c-1.6,0-3-1.3-3-3s1.3-3,3-3c1.6,0,3,1.3,3,3S19.6,11.9,18,11.9z"/>
	<path class="st2" d="M9,30c-1.6,0-3-1.3-3-3c0-1.6,1.3-3,3-3s3,1.3,3,3C11.9,28.7,10.6,30,9,30z"/>
	<path class="st1" d="M9,21c-1.6,0-3-1.3-3-3c0-1.6,1.3-3,3-3s3,1.3,3,3C11.9,19.6,10.6,21,9,21z"/>
	<path class="st1" d="M9,11.9c-1.6,0-3-1.3-3-3s1.3-3,3-3s3,1.3,3,3S10.6,11.9,9,11.9z"/>
	<path class="st1" d="M27,30c-1.6,0-3-1.3-3-3c0-1.6,1.3-3,3-3c1.6,0,3,1.3,3,3C30,28.7,28.7,30,27,30z"/>
	<path class="st2" d="M27,21c-1.6,0-3-1.3-3-3c0-1.6,1.3-3,3-3c1.6,0,3,1.3,3,3C30,19.6,28.7,21,27,21z"/>
	<path class="st1" d="M27,11.9c-1.6,0-3-1.3-3-3s1.3-3,3-3c1.6,0,3,1.3,3,3S28.7,11.9,27,11.9z"/>
</g>
</svg>
