<?xml version="1.0" encoding="utf-8"?>
<!-- Generator: Adobe Illustrator 24.2.1, SVG Export Plug-In . SVG Version: 6.00 Build 0)  -->
<svg version="1.1" id="Layer_1" xmlns="http://www.w3.org/2000/svg" xmlns:xlink="http://www.w3.org/1999/xlink" x="0px" y="0px"
	 viewBox="0 0 145 145" style="enable-background:new 0 0 145 145;" xml:space="preserve">
<style type="text/css">
	.st0{fill:#CD4A3D;}
	.st1{fill:#9EEBD5;}
	.st2{fill:#FFFFFF;}
</style>
<g>
	<path class="st0" d="M68.77,87.52c1.67-6.59,0.63-13.57-1.12-20.13c-2.23-8.36-4.03-21.01-8.96-25.7
		c-3.32-3.15-14.25-4.73-18.06-3.24c-6.09,2.38-11.92,5.43-17.34,9.1c-9,6.09-17.46,15.25-17.07,26.08
		c0.22,6.12,3.29,11.78,6.99,16.65c4.42,5.81,9.94,10.93,16.55,14.04C44.9,111.44,64.42,104.68,68.77,87.52z"/>
	<path class="st1" d="M109.12,65.74H99.09v4.69c-1.73-3.61-5.78-5.7-10.47-5.7c-8.52,0-15.23,7-15.23,18.19
		c0,11.26,6.5,18.19,14.73,18.19c5.78,0,9.24-2.89,10.97-5.99v4.98h10.04V65.74z M98.8,83.79c0,6.35-3.9,9.31-7.8,9.31
		c-4.26,0-7-4.33-7-10.18c0-5.78,2.89-10.18,7.36-10.18c3.68,0,7.44,3.03,7.44,9.31V83.79z"/>
	<path class="st2" d="M50.88,49.58H39.25l-18.19,50.54h10.61l4.04-11.7h18.12l4.04,11.7h11.19L50.88,49.58z M44.81,61.42
		c0.87,3.25,6.06,18.41,6.06,18.41h-12.2c0,0,5.13-15.16,5.99-18.41H44.81z"/>
	<polygon class="st0" points="138.8,50.76 138.8,49.39 126.8,49.39 125.43,49.39 113.43,49.39 113.43,50.76 125.43,50.76 
		125.43,98.75 113.43,98.75 113.43,100.12 125.43,100.12 126.8,100.12 138.8,100.12 138.8,98.75 126.8,98.75 126.8,50.76 	"/>
</g>
</svg>
